<?xml version="1.0" encoding="utf-8"?>
<!-- Generator: Moho 12.5 build 22438 -->
<!DOCTYPE svg PUBLIC "-//W3C//DTD SVG 1.1//EN" "http://www.w3.org/Graphics/SVG/1.1/DTD/svg11.dtd">
<svg version="1.1" id="Frame_1" xmlns="http://www.w3.org/2000/svg" xmlns:xlink="http://www.w3.org/1999/xlink" width="1000px" height="863px">
<g id="fondo">
<path fill="#58aaf6" fill-rule="evenodd" stroke="none" d="M -31.961 -28.574 C -31.855 -28.574 1031.855 -28.574 1031.961 -28.574 C 1031.961 -28.482 1031.961 891.482 1031.961 891.574 C 1031.855 891.574 -31.855 891.574 -31.961 891.574 C -31.961 891.482 -31.961 -28.482 -31.961 -28.574 Z"/>
</g>
<g id="pokeball.png_(Trazada)">
<path fill="#6fc1f9" fill-rule="evenodd" stroke="none" d="M 471.382 489.567 C 464.402 490.266 449.745 488.867 445.557 493.754 C 438.580 500.734 451.143 550.287 454.632 560.756 C 475.570 631.248 519.540 691.970 580.262 733.847 C 668.203 795.268 790.346 809.226 890.150 768.747 C 941.797 747.808 987.166 712.908 1022.761 669.636 C 1052.770 634.041 1072.313 590.070 1084.177 544.006 C 1098.138 488.172 1090.458 490.266 1061.844 489.567 C 1014.377 489.571 966.917 489.570 919.463 489.567 C 876.888 490.266 891.544 507.017 867.818 535.630 C 844.786 563.549 805.003 587.976 768.708 585.882 C 738.695 583.789 705.194 566.338 685.654 544.006 C 662.622 517.485 668.903 490.266 630.514 489.567 C 594.219 489.571 557.926 489.571 521.635 489.567 C 504.882 489.571 488.132 489.571 471.382 489.567 M 785.457 534.237 C 878.981 516.788 849.669 375.801 760.333 395.344 C 670.297 415.581 696.816 550.287 785.457 534.237 M 1031.832 271.807 C 967.622 180.378 842.691 123.145 731.018 139.896 C 628.420 155.252 543.272 202.712 488.832 292.747 C 466.496 329.736 456.726 356.261 447.651 397.438 C 445.557 405.813 439.275 429.546 445.557 435.827 C 449.745 440.710 464.402 439.315 471.382 439.315 C 523.029 439.318 574.677 439.319 626.327 439.315 C 672.391 439.314 659.129 416.982 686.348 385.575 C 707.287 361.843 737.300 347.885 768.708 344.392 C 803.604 340.904 841.992 363.936 864.325 389.062 C 890.849 420.470 874.794 439.314 919.463 439.315 C 966.917 439.319 1014.377 439.318 1061.844 439.315 C 1101.628 439.315 1093.253 421.865 1084.878 389.062 C 1073.710 342.998 1059.751 310.891 1031.832 271.807 Z"/>
</g>
</svg>
