<?xml version="1.0" encoding="utf-8"?>
<!-- Generator: Moho 12.5 build 22438 -->
<!DOCTYPE svg PUBLIC "-//W3C//DTD SVG 1.1//EN" "http://www.w3.org/Graphics/SVG/1.1/DTD/svg11.dtd">
<svg version="1.1" id="Frame_1" xmlns="http://www.w3.org/2000/svg" xmlns:xlink="http://www.w3.org/1999/xlink" width="1280px" height="1280px">
<g id="PIKA?_UDB">
<path fill="#000000" fill-rule="evenodd" stroke="none" d="M 667.834 778.629 C 667.834 777.023 671.045 768.458 673.720 770.064 C 675.326 771.133 674.257 779.698 673.720 781.840 C 672.115 792.544 669.439 803.248 666.761 813.418 C 661.411 832.687 656.057 850.350 648.565 868.013 C 645.354 877.111 637.325 891.563 637.325 900.127 C 637.325 911.367 653.382 930.100 663.017 934.384 C 684.424 944.018 690.847 930.636 704.765 917.254 C 730.457 891.563 752.937 863.196 772.739 832.687 C 779.698 822.516 786.657 811.813 793.613 801.109 C 794.150 800.036 798.967 790.938 800.036 792.544 C 801.109 793.080 799.503 802.715 800.036 805.390 C 800.036 808.601 802.715 809.671 802.714 814.488 C 803.784 828.406 790.938 850.350 783.446 861.590 C 765.246 891.029 738.486 924.213 706.904 939.734 C 698.876 943.482 690.847 949.905 681.749 950.441 C 666.761 951.511 646.423 941.340 635.719 932.242 C 621.801 919.932 625.012 902.802 629.829 887.282 C 638.394 861.590 648.029 836.435 657.127 810.207 C 660.338 800.036 663.550 788.796 667.834 778.629 M 495.485 717.075 C 515.823 717.075 535.628 712.258 555.966 712.258 C 568.812 711.721 557.039 719.750 552.755 722.428 C 540.981 729.384 530.811 730.990 517.965 733.668 C 482.103 742.230 445.171 740.091 408.776 739.555 C 406.101 739.555 391.649 740.624 390.576 737.949 C 388.971 734.738 400.747 722.961 408.776 720.823 C 413.057 720.286 425.369 720.823 431.256 720.823 C 452.667 718.144 473.005 717.611 495.485 717.075 M 408.776 585.405 C 413.057 585.405 435.537 581.125 437.142 582.730 C 439.285 584.869 435.004 588.617 433.398 589.686 C 427.508 592.898 415.735 596.109 408.776 597.182 C 390.043 600.393 383.084 592.898 367.027 592.365 C 350.970 591.828 308.685 610.561 296.375 588.617 C 293.700 584.336 300.656 585.405 302.798 585.405 C 311.896 585.942 319.392 587.011 328.490 585.405 C 344.547 584.336 353.112 581.658 370.238 582.730 C 383.084 582.730 395.394 585.942 408.776 585.405 M 356.856 536.697 C 326.347 538.839 322.603 508.867 356.856 506.725 C 383.621 505.119 386.832 535.092 356.856 536.697 M 659.269 586.475 C 633.041 568.279 638.394 511.006 672.115 503.513 C 678.537 501.908 701.018 501.371 707.440 503.513 C 725.104 509.936 745.978 537.234 739.555 556.502 C 732.596 577.377 710.652 585.405 691.383 590.223 C 680.680 592.365 668.903 592.898 659.269 586.475 M 516.359 466.582 C 495.485 438.215 512.612 394.861 546.868 387.365 C 572.023 382.015 599.321 387.901 615.378 409.312 C 637.858 439.285 616.451 481.033 582.194 488.526 C 558.644 493.343 530.811 486.920 516.359 466.582 M 193.609 444.102 C 192.539 418.410 204.849 394.324 232.146 387.901 C 238.569 386.296 259.443 385.226 264.797 389.507 C 271.753 394.861 286.741 430.720 274.431 450.525 C 264.797 466.582 248.740 469.257 232.146 469.793 C 223.581 470.330 205.385 470.330 198.962 464.440 C 194.145 459.623 193.609 450.525 193.609 444.102 M 357.393 219.300 C 358.459 218.241 359.530 217.170 360.604 216.089 C 359.530 217.170 358.459 218.241 357.393 219.300 M 20.190 87.631 C 17.515 87.095 12.162 86.025 10.020 87.631 C 6.275 91.379 11.092 100.477 13.231 103.688 C 20.727 118.140 32.500 130.985 43.207 142.762 C 64.081 166.311 87.631 187.186 109.575 209.666 C 120.815 220.906 130.449 233.752 142.226 244.456 C 156.677 257.301 172.734 269.614 188.255 281.924 C 210.735 300.123 212.877 307.079 238.569 289.952 C 239.105 289.416 251.951 280.854 251.951 284.599 C 251.951 287.277 237.500 297.981 235.358 300.123 C 225.723 309.757 206.454 335.982 199.495 347.758 C 180.763 382.015 167.381 420.552 155.071 456.947 C 145.437 484.781 136.872 504.583 133.128 534.022 C 129.916 559.177 137.408 592.898 149.718 614.308 C 155.608 624.479 162.031 634.113 168.453 643.211 C 170.059 645.887 176.482 652.846 175.946 656.057 C 175.409 658.199 170.592 656.594 165.775 663.550 C 160.425 672.115 156.141 687.635 152.929 697.806 C 137.945 748.653 135.266 793.613 135.803 845.533 C 135.803 864.801 135.266 899.591 156.141 909.225 C 162.031 910.831 167.917 908.156 174.340 909.225 C 185.044 910.298 179.157 912.437 191.467 909.225 C 192.003 909.762 195.214 908.156 195.751 909.225 C 195.751 913.509 193.609 918.860 193.072 922.608 C 191.467 932.242 194.678 939.734 197.890 948.299 C 204.849 969.710 221.442 1000.219 233.752 1018.951 C 238.569 1026.980 256.768 1051.065 258.374 1057.488 C 262.119 1069.265 247.667 1085.855 242.317 1096.026 C 238.033 1104.591 235.894 1109.408 235.358 1118.506 C 234.821 1127.071 236.427 1136.169 233.752 1144.198 C 231.610 1149.551 223.581 1157.580 224.654 1162.397 C 225.187 1166.678 231.610 1166.678 234.821 1167.747 C 245.528 1170.958 252.484 1181.129 264.261 1183.271 C 273.359 1185.410 287.810 1176.848 296.375 1173.100 C 304.404 1169.353 320.461 1164.002 326.884 1157.579 C 330.095 1154.368 333.307 1144.198 337.054 1137.775 C 346.689 1121.717 357.393 1106.730 366.491 1089.603 C 371.308 1081.038 383.084 1054.813 390.576 1051.066 C 398.605 1046.785 422.158 1060.700 431.256 1063.375 C 462.301 1074.615 504.050 1082.644 537.234 1083.180 C 560.250 1083.716 581.658 1084.249 604.674 1086.391 C 608.955 1086.928 631.435 1090.139 634.113 1092.814 C 642.142 1098.701 666.228 1133.494 679.074 1145.803 C 686.030 1152.226 699.412 1163.466 707.440 1168.820 C 711.721 1170.958 720.823 1175.776 721.892 1180.593 C 724.567 1193.439 699.412 1192.906 687.635 1214.849 C 685.497 1218.597 682.285 1224.484 684.960 1228.231 C 686.566 1230.906 694.595 1231.976 697.806 1233.049 C 706.371 1236.793 716.538 1248.033 725.103 1244.289 C 734.201 1240.541 731.526 1231.976 743.836 1234.118 C 760.429 1236.793 764.177 1227.159 774.881 1215.919 C 793.613 1196.650 811.813 1177.381 830.545 1158.113 C 856.773 1131.352 886.212 1102.985 904.945 1070.334 C 946.693 999.146 955.258 910.831 954.722 829.476 C 954.186 810.743 939.201 778.092 947.230 762.571 C 953.653 749.726 989.512 725.640 1002.894 716.005 C 1045.712 685.497 1089.603 653.915 1131.352 620.731 C 1139.917 613.772 1173.637 589.153 1177.918 581.125 C 1181.666 572.560 1174.170 563.462 1169.353 556.502 C 1160.255 543.120 1149.551 531.347 1139.380 517.965 C 1136.705 514.217 1129.210 505.656 1129.746 500.302 C 1130.282 493.879 1157.043 475.680 1163.466 470.863 C 1191.300 448.383 1220.203 427.508 1250.175 408.239 C 1266.233 397.536 1281.220 391.649 1281.754 370.238 C 1283.896 307.615 1282.290 243.923 1281.754 180.763 C 1281.754 177.551 1282.826 164.169 1279.615 162.031 C 1275.867 159.352 1265.163 170.059 1262.485 172.198 C 1245.358 186.116 1227.695 200.032 1211.102 214.483 C 1139.380 276.570 1063.375 334.376 986.836 390.043 C 968.104 403.422 948.299 415.735 929.030 427.508 C 923.677 430.720 904.945 440.890 903.339 445.707 C 900.664 452.667 924.750 470.863 930.100 475.680 C 955.791 499.233 985.767 518.501 1012.528 540.981 C 1016.809 545.262 1036.078 560.250 1036.614 565.600 C 1037.150 572.560 1022.699 587.011 1017.882 592.365 C 998.613 614.308 978.808 635.719 957.933 656.057 C 954.186 659.805 934.917 679.607 930.100 675.862 C 927.425 674.257 923.677 659.805 922.608 656.057 C 917.067 640.006 911.536 623.949 906.014 607.886 C 897.452 582.730 892.099 556.502 884.606 530.811 C 873.366 493.343 856.773 453.200 838.040 418.410 C 826.264 396.999 811.276 376.125 794.686 357.929 C 791.474 354.717 772.739 341.335 773.275 342.405 C 772.206 338.660 779.162 335.449 777.023 332.237 C 774.345 327.420 764.710 331.701 762.035 332.237 C 751.331 337.054 722.961 349.900 713.863 351.506 C 698.342 353.645 689.778 339.730 681.213 329.026 C 678.537 325.814 671.578 319.925 674.257 315.644 C 676.932 312.432 698.875 302.798 704.229 299.586 C 731.526 282.993 758.287 265.330 787.727 252.484 C 796.825 248.740 806.459 246.061 816.093 243.386 C 817.699 242.850 823.589 241.244 824.658 243.386 C 825.728 244.456 816.093 256.232 814.488 258.374 C 804.320 274.431 799.503 291.022 797.361 309.221 C 796.292 311.896 793.080 325.814 797.361 325.814 C 801.642 325.814 808.601 315.644 811.276 312.969 C 821.447 302.262 833.756 293.700 845.533 285.135 C 893.704 247.667 946.693 217.158 996.471 182.369 C 1010.922 171.665 1027.516 162.031 1040.895 149.718 C 1043.037 147.043 1051.602 139.550 1049.996 135.803 C 1048.390 132.591 1040.362 133.128 1037.683 133.128 C 1025.910 133.128 1008.247 137.945 996.471 140.620 C 938.665 153.466 879.789 160.425 823.053 174.876 C 795.219 182.369 766.852 186.116 739.555 192.003 C 725.640 195.214 711.188 200.568 697.806 204.312 C 689.241 206.455 651.240 220.370 646.423 220.370 C 638.931 220.906 642.142 209.130 626.618 204.849 C 613.239 201.637 574.702 198.426 559.714 196.820 C 548.474 195.751 538.303 193.609 527.599 194.145 C 501.371 195.751 475.680 199.495 450.525 202.707 C 440.354 203.779 431.256 203.243 421.622 204.849 C 409.312 206.991 378.267 216.089 367.563 214.483 C 361.140 213.414 364.352 208.596 358.998 204.312 C 355.251 202.174 342.405 196.820 338.124 194.678 C 324.209 188.792 309.757 185.044 296.375 179.157 C 279.782 172.734 264.261 164.706 248.203 159.352 C 188.792 138.478 131.522 114.392 71.574 98.335 C 53.374 93.518 38.390 88.700 20.190 87.631 Z"/>
</g>
</svg>
